<?xml version="1.0" encoding="utf-8"?>
<!-- Generator: Adobe Illustrator 16.0.4, SVG Export Plug-In . SVG Version: 6.00 Build 0)  -->
<!DOCTYPE svg PUBLIC "-//W3C//DTD SVG 1.1//EN" "http://www.w3.org/Graphics/SVG/1.1/DTD/svg11.dtd">
<svg version="1.1" id="icon-syntax" xmlns="http://www.w3.org/2000/svg" xmlns:xlink="http://www.w3.org/1999/xlink" x="0px"
	 y="0px" width="50px" height="50px" viewBox="0 0 50 50" enable-background="new 0 0 50 50" xml:space="preserve">
<path fill="#05D4B3" d="M48,41.313C48,45.006,45.006,48,41.313,48H8.687C4.994,48,2,45.006,2,41.313V8.687C2,4.994,4.994,2,8.687,2
	h32.627C45.006,2,48,4.994,48,8.687V41.313z"/>
<polygon fill="#FFFFFF" points="16.153,32.654 9,25.5 16.153,18.346 17.823,20.017 12.338,25.5 17.823,30.983 16.153,32.654 "/>
<polygon fill="#FFFFFF" points="32.846,32.654 40,25.5 32.846,18.346 31.177,20.017 36.66,25.5 31.177,30.983 32.846,32.654 "/>
<polygon fill="#FFFFFF" points="23.559,35 27.801,17 25.415,17 21.174,35 "/>
</svg>
