<svg width="30" height="30" viewBox="0 0 30 30" fill="none" xmlns="http://www.w3.org/2000/svg">
<g clip-path="url(#clip0)">
<path d="M15.0003 21.4714C18.4315 21.4714 21.2131 18.6898 21.2131 15.2586C21.2131 11.8274 18.4315 9.04582 15.0003 9.04582C11.569 9.04582 8.78748 11.8274 8.78748 15.2586C8.78748 18.6898 11.569 21.4714 15.0003 21.4714Z" fill="#3083C9"/>
<path d="M18.6384 15.2586C18.6384 17.2602 17.0158 18.8827 15.0143 18.8827C13.0127 18.8827 11.3901 17.2602 11.3901 15.2586C11.3901 13.2571 13.0127 11.6345 15.0143 11.6345" stroke="#C6E2F7" stroke-width="2" stroke-miterlimit="10" stroke-linecap="round"/>
<path d="M0.517761 15.1742L0.63684 15.0541C8.58351 7.04323 21.5356 7.04323 29.4823 15.0541" stroke="#556080" stroke-width="2" stroke-miterlimit="10" stroke-linecap="round"/>
</g>
<defs>
<clipPath id="clip0">
<rect width="30" height="30" fill="white"/>
</clipPath>
</defs>
</svg>
